<?xml version="1.0" encoding="UTF-8"?>
<svg width="359mm" height="202.87mm" version="1.1" viewBox="0 0 1272.0617 718.8415" xmlns="http://www.w3.org/2000/svg">
 <g transform="translate(339.16 -115.14)">
  <rect x="-339.16" y="115.14" width="1272.1" height="718.84" color="#000000" color-rendering="auto" fill="#fff" image-rendering="auto" shape-rendering="auto" solid-color="#000000" style="isolation:auto;mix-blend-mode:normal"/>
  <rect x="-73.449" y="699.69" width="805.71" height="18.571" ry="4.6429" color="#000000" color-rendering="auto" fill="#90a4ae" image-rendering="auto" shape-rendering="auto" solid-color="#000000" style="isolation:auto;mix-blend-mode:normal"/>
  <rect x="-154.88" y="548.32" width="41.978" height="51.672" ry="3.5421" color="#000000" color-rendering="auto" fill="#424242" image-rendering="auto" shape-rendering="auto" solid-color="#000000" style="isolation:auto;mix-blend-mode:normal"/>
  <rect x="-183.93" y="566.47" width="15.536" height="37.5" ry="2.5706" color="#000000" color-rendering="auto" fill="#ffb300" image-rendering="auto" shape-rendering="auto" solid-color="#000000" style="isolation:auto;mix-blend-mode:normal"/>
  <rect x="-175.71" y="567.01" width="15.714" height="44.286" ry="3.0357" color="#000000" color-rendering="auto" fill="#424242" image-rendering="auto" shape-rendering="auto" solid-color="#000000" style="isolation:auto;mix-blend-mode:normal"/>
  <path d="m514.63 265.96h73.275v23.739l-82.833 20.203z" fill="#cddc39" fill-rule="evenodd"/>
  <rect transform="scale(-1,1)" x="102.69" y="504.64" width="13.4" height="53.599" ry="4.5755" color="#000000" color-rendering="auto" fill="#ffa000" image-rendering="auto" shape-rendering="auto" solid-color="#000000" style="isolation:auto;mix-blend-mode:normal"/>
  <rect transform="scale(-1,1)" x="94.681" y="497.29" width="13.4" height="53.599" ry="4.5755" color="#000000" color-rendering="auto" fill="#333" image-rendering="auto" shape-rendering="auto" solid-color="#000000" style="isolation:auto;mix-blend-mode:normal"/>
  <path d="m312.38 621.12h-50.587l-14.193 11.093-103.46-8.4974-59.161 15.22-113.7 11.766 7.6772-42-41.88 0.40214-13.174-11.766-33.97-9.4954 444.63-4.622z" fill="#424242" fill-rule="evenodd"/>
  <path d="m304.87 600.24h-377.35l6.7018 6.1303h370.65z" color="#000000" color-rendering="auto" fill="#333" image-rendering="auto" shape-rendering="auto" solid-color="#000000" style="isolation:auto;mix-blend-mode:normal"/>
  <path d="m719.82 615.11-98.909 46.061-29.576-10.667-53.052-8.1382-14.342 0.86544-32.97 0.96986-24.727-76.606h57.212l-1.9394-11.152v-91.151h44.606l141.09 54.788z" fill="#424242" fill-rule="evenodd"/>
  <path d="m694.73 610.95h-5.893c-26.112-55-63.394-62.38-106.02-46.992l-31.702 30.885h-10.458l0.32677-44.284 56.214-12.419 56.867-3.595 46.082 45.755z" fill="#333" fill-rule="evenodd"/>
  <path d="m564.7 465.29 3.8016 0.92506 4.1529 1.6127 6.4088 63.628-57.549-62.169v-3.9974h43.186z" fill="#333" fill-rule="evenodd"/>
  <path d="m546.14 337.44c11.103-12.485 170.65-3.4596 172.45 2.3999 26.765 37.956 49.602 76.917 65.228 115.75 4.9522 17.916 6.3814 31.135 7.2728 43.636-0.16559 41.208-5.467 77.281-9.2122 114.91l-89.212-2.909c-22.903-57.763-62.316-69.297-111.03-54.788l-41.212 0.96986c1.8544-73.323-4.5685-211.79 5.7181-219.97z" fill="#cddc39" fill-rule="evenodd"/>
  <path d="m763.59 572.07c-38.303-17.929-81.59-42.953-119.89-56.564-30.301-6.464-60.43-5.1734-89.634-7.6157l-0.14533 15.377c26.003 0.13033 62.283 0.81246 89.249 4.7961 38.055 13.814 81.258 36.964 119.31 54.22z" fill="#afb42b" fill-rule="evenodd"/>
  <path d="m748.93 481.26c12.278 2.2954 24.888 4.6554 41.655 15.428l-0.51423 7.0282c-13.076-13.566-28.404-15.335-43.198-21.599z" fill="#afb42b" fill-rule="evenodd"/>
  <path d="m571.49 338.36c-5.2121-0.15055-9.7429 0.75674-13.277 3.1445-3.5354 2.3884-5.9499 6.2436-6.998 11.523l-0.0254 0.13086v197.88l25.799-0.51563 0.16797-0.0469c26.759-7.5196 49.764-7.9471 68.723-0.73047s33.992 22.068 44.828 45.566l0.36329 0.78906h73.178l0.0781-1.2754c2.9217-48.269 5.0251-96.667-0.97851-145.7l-0.0176-0.14258-0.0449-0.13477c-12.868-37.291-28.856-72.406-54.088-100.82l-0.30664-0.34571-0.45508-0.0879c-46.316-8.7579-91.673-8.9792-136.94-9.2344h-4e-3zm-0.0742 2.7148h0.0312c45.125 0.2544 90.158 0.49538 136.01 9.1094 24.669 27.919 40.458 62.493 53.211 99.426 5.8926 48.263 3.8896 96.017 1.0137 143.78h-68.91c-11.031-23.506-26.482-38.775-45.93-46.178-19.629-7.4718-43.194-6.9652-70.24 0.60742l-22.699 0.45313v-194.81c0.95398-4.7013 2.9457-7.7578 5.8281-9.7051 2.9042-1.962 6.8311-2.8204 11.684-2.6797z" color="#000000" color-rendering="auto" fill="#9e9d24" fill-rule="evenodd" image-rendering="auto" shape-rendering="auto" solid-color="#000000" style="block-progression:tb;isolation:auto;mix-blend-mode:normal;text-decoration-color:#000000;text-decoration-line:none;text-decoration-style:solid;text-indent:0;text-transform:none;white-space:normal"/>
  <path d="m788.02 558.11c-12.011-7.4854-13.87 2.2808-24.92 1.9401l-0.42066 17.457c7.1566 4.4662 10.8 2.6665 23.496 3.9161 1.9682-6.7647 2.2072-14.815 1.8442-23.313z" fill="#e6ee9c" fill-rule="evenodd"/>
  <path d="m789.4 539.94c-11.164-7.4854-14.278-6.1543-24.549-6.495-1.5981 8.7462-3.2077 17.656-1.7263 26.402 6.0743 3.5057 11.826 2.4143 24.561 3.406 1.6443-7.771 2.2488-15.542 1.7144-23.313z" fill="#ffb300" fill-rule="evenodd"/>
  <path d="m757.64 531.5c10.056 0.33912 20.83 1.115 31.76 8.4435l-0.33402 4.5555c-11.426-5.6014-24.099-6.0898-31.039-6.2682z" fill="#ff8f00" fill-rule="evenodd"/>
  <path d="m762.65 583.09c13.085 0.91745 26.17 2.1656 39.255 8.9138 0.14934 8.862 1.3317 23.172-7.7002 32.156-8.3854 5.8962-59.73 2.5332-91.473 3.6785l-12-16.97 73.975 2.3912z" fill="#333" fill-rule="evenodd"/>
  <path d="m747.94 481.53c-0.095-13.73 1.5622-27.644-0.35582-40.462-5.5112-17.525-20.134-58.918-44.439-83.517-10.775-8.5266-124.4-12.288-129.18-5.2156-4.5647 9.3863-3.5716 78.46 0.77649 82.859 24.252 20.624 103.72 46.797 173.2 46.337z" fill="#424242" fill-rule="evenodd"/>
  <path d="m738.39 474.34c-0.0896-12.814 1.4173-24.387-0.39342-36.35-5.2038-16.356-16.828-55.418-39.776-78.376-10.174-7.9573-117.46-11.468-121.97-4.8672-4.31 8.7596-2.473 73.105 1.6323 77.21 21.951 20.607 105.41 42.823 160.5 42.383z" fill="#d7ccc8" fill-rule="evenodd"/>
  <path d="m823.82 389.65 3.3939 47.151c4.2555-0.7301 8.7137-0.24434 12.364-4.606l-3.2728-29.939c-1.615-4.0404-3.7182-8.0809-6.303-12.121z" fill="#424242" fill-rule="evenodd"/>
  <path d="m722.18 345.04c24.468 35.259 45.457 71.327 60.306 107.32l-11.513-3.0809c-14.756-34.882-30.497-69.295-53.815-100.12l5.022-4.1205z" fill="#424242" fill-rule="evenodd"/>
  <path d="m835.22 435.47-0.72738 8.2424-2.303 1.3334h-48l-5.3334 6.303v3.6364l2.303 0.60599 0.36379 2.6666-2.6668 3.3939 0.60598 13.455-2.0605 1.4545-9.212-10.788 0.96957-11.394 6.0604-0.60631v-4.3635l7.1517-8.9698h48.606l0.60605-4.9695z" fill="#424242" fill-rule="evenodd"/>
  <path d="m600.41 503.35-39.092-1.946v-11.914c0.80147-2.9202 3.3901-2.802 5.7425-3.0855l23.445 1.7999c2.6459 1.0956 8.0721 3.5354 9.9814 6.8568z" fill="#212121" fill-rule="evenodd"/>
  <rect transform="scale(-1,1)" x="-508.42" y="536.08" width="632.72" height="64" ry="6.9262" color="#000000" color-rendering="auto" fill="#424242" image-rendering="auto" shape-rendering="auto" solid-color="#000000" style="isolation:auto;mix-blend-mode:normal"/>
  <ellipse cx="20.497" cy="641.65" rx="69.936" ry="70.619" color="#000000" color-rendering="auto" fill="#9e9e9e" image-rendering="auto" shape-rendering="auto" solid-color="#000000" style="isolation:auto;mix-blend-mode:normal"/>
  <rect transform="scale(-1,1)" x="-484.15" y="560.71" width="182.79" height="81.939" ry="6.9262" color="#000000" color-rendering="auto" fill="#424242" image-rendering="auto" shape-rendering="auto" solid-color="#000000" style="isolation:auto;mix-blend-mode:normal"/>
  <path d="m501.42 587.38-6.933 7.3952 30.967 48.068 51.304-1.8488 0.46222-9.2439-47.144 0.4622z" fill="#333" fill-rule="evenodd"/>
  <ellipse cx="618.24" cy="641.68" rx="69.448" ry="70.589" color="#000000" color-rendering="auto" fill="#9e9e9e" image-rendering="auto" shape-rendering="auto" solid-color="#000000" style="isolation:auto;mix-blend-mode:normal"/>
  <circle cx="618.52" cy="642.98" r="69.289" color="#000000" color-rendering="auto" fill="#666" image-rendering="auto" shape-rendering="auto" solid-color="#000000" style="isolation:auto;mix-blend-mode:normal"/>
  <circle cx="618.52" cy="642.98" r="43.194" color="#000000" color-rendering="auto" fill="#b0bec5" image-rendering="auto" shape-rendering="auto" solid-color="#000000" style="isolation:auto;mix-blend-mode:normal"/>
  <circle cx="618.43" cy="642.89" r="40.612" color="#000000" color-rendering="auto" fill="#999" image-rendering="auto" shape-rendering="auto" solid-color="#000000" style="isolation:auto;mix-blend-mode:normal"/>
  <circle cx="618.52" cy="642.98" r="34.021" color="#000000" color-rendering="auto" fill="#e6e6e6" image-rendering="auto" shape-rendering="auto" solid-color="#000000" style="isolation:auto;mix-blend-mode:normal"/>
  <circle cx="618.52" cy="642.98" r="19.711" color="#000000" color-rendering="auto" fill="#808080" image-rendering="auto" shape-rendering="auto" solid-color="#000000" style="isolation:auto;mix-blend-mode:normal"/>
  <circle cx="634.84" cy="623.31" r="2.9219" color="#000000" color-rendering="auto" fill="#666" image-rendering="auto" shape-rendering="auto" solid-color="#000000" style="isolation:auto;mix-blend-mode:normal"/>
  <circle cx="645.06" cy="640.84" r="2.9219" color="#000000" color-rendering="auto" fill="#666" image-rendering="auto" shape-rendering="auto" solid-color="#000000" style="isolation:auto;mix-blend-mode:normal"/>
  <circle cx="638.65" cy="659.9" r="2.9219" color="#000000" color-rendering="auto" fill="#666" image-rendering="auto" shape-rendering="auto" solid-color="#000000" style="isolation:auto;mix-blend-mode:normal"/>
  <circle cx="619.59" cy="669.52" r="2.9219" color="#000000" color-rendering="auto" fill="#666" image-rendering="auto" shape-rendering="auto" solid-color="#000000" style="isolation:auto;mix-blend-mode:normal"/>
  <circle cx="598.75" cy="661.68" r="2.9219" color="#000000" color-rendering="auto" fill="#666" image-rendering="auto" shape-rendering="auto" solid-color="#000000" style="isolation:auto;mix-blend-mode:normal"/>
  <circle cx="592.16" cy="642.44" r="2.9219" color="#000000" color-rendering="auto" fill="#666" image-rendering="auto" shape-rendering="auto" solid-color="#000000" style="isolation:auto;mix-blend-mode:normal"/>
  <circle cx="599.64" cy="624.81" r="2.9219" color="#000000" color-rendering="auto" fill="#666" image-rendering="auto" shape-rendering="auto" solid-color="#000000" style="isolation:auto;mix-blend-mode:normal"/>
  <circle cx="615.49" cy="617.5" r="2.9219" color="#000000" color-rendering="auto" fill="#666" image-rendering="auto" shape-rendering="auto" solid-color="#000000" style="isolation:auto;mix-blend-mode:normal"/>
  <circle cx="618.43" cy="642.89" r="16.95" color="#000000" color-rendering="auto" fill="#999" image-rendering="auto" shape-rendering="auto" solid-color="#000000" style="isolation:auto;mix-blend-mode:normal"/>
  <circle cx="20.608" cy="642.98" r="69.289" color="#000000" color-rendering="auto" fill="#666" image-rendering="auto" shape-rendering="auto" solid-color="#000000" style="isolation:auto;mix-blend-mode:normal"/>
  <circle cx="20.608" cy="642.98" r="43.194" color="#000000" color-rendering="auto" fill="#b0bec5" image-rendering="auto" shape-rendering="auto" solid-color="#000000" style="isolation:auto;mix-blend-mode:normal"/>
  <circle cx="20.519" cy="642.89" r="40.612" color="#000000" color-rendering="auto" fill="#999" image-rendering="auto" shape-rendering="auto" solid-color="#000000" style="isolation:auto;mix-blend-mode:normal"/>
  <circle cx="20.608" cy="642.98" r="34.021" color="#000000" color-rendering="auto" fill="#e6e6e6" image-rendering="auto" shape-rendering="auto" solid-color="#000000" style="isolation:auto;mix-blend-mode:normal"/>
  <circle cx="20.608" cy="642.98" r="19.711" color="#000000" color-rendering="auto" fill="#808080" image-rendering="auto" shape-rendering="auto" solid-color="#000000" style="isolation:auto;mix-blend-mode:normal"/>
  <circle cx="36.924" cy="623.31" r="2.9219" color="#000000" color-rendering="auto" fill="#666" image-rendering="auto" shape-rendering="auto" solid-color="#000000" style="isolation:auto;mix-blend-mode:normal"/>
  <circle cx="47.149" cy="640.84" r="2.9219" color="#000000" color-rendering="auto" fill="#666" image-rendering="auto" shape-rendering="auto" solid-color="#000000" style="isolation:auto;mix-blend-mode:normal"/>
  <circle cx="40.737" cy="659.9" r="2.9219" color="#000000" color-rendering="auto" fill="#666" image-rendering="auto" shape-rendering="auto" solid-color="#000000" style="isolation:auto;mix-blend-mode:normal"/>
  <circle cx="21.678" cy="669.52" r="2.9219" color="#000000" color-rendering="auto" fill="#666" image-rendering="auto" shape-rendering="auto" solid-color="#000000" style="isolation:auto;mix-blend-mode:normal"/>
  <circle cx=".83736" cy="661.68" r="2.9219" color="#000000" color-rendering="auto" fill="#666" image-rendering="auto" shape-rendering="auto" solid-color="#000000" style="isolation:auto;mix-blend-mode:normal"/>
  <circle cx="-5.753" cy="642.44" r="2.9219" color="#000000" color-rendering="auto" fill="#666" image-rendering="auto" shape-rendering="auto" solid-color="#000000" style="isolation:auto;mix-blend-mode:normal"/>
  <circle cx="1.7276" cy="624.81" r="2.9219" color="#000000" color-rendering="auto" fill="#666" image-rendering="auto" shape-rendering="auto" solid-color="#000000" style="isolation:auto;mix-blend-mode:normal"/>
  <circle cx="17.58" cy="617.5" r="2.9219" color="#000000" color-rendering="auto" fill="#666" image-rendering="auto" shape-rendering="auto" solid-color="#000000" style="isolation:auto;mix-blend-mode:normal"/>
  <circle cx="20.519" cy="642.89" r="16.95" color="#000000" color-rendering="auto" fill="#999" image-rendering="auto" shape-rendering="auto" solid-color="#000000" style="isolation:auto;mix-blend-mode:normal"/>
  <rect transform="scale(-1,1)" x="-769.95" y="542.89" width="3.6976" height="15.83" ry="1.6506" color="#000000" color-rendering="auto" fill="#ff8f00" image-rendering="auto" shape-rendering="auto" solid-color="#000000" style="isolation:auto;mix-blend-mode:normal"/>
  <path d="m598.59 501.29v-5.6377c-2.6672-2.0017-5.669-3.7432-9.3144-4.984l-25.002-1.7975c-1.016 0.12304-1.6257 0.88478-1.8792 2.206l26.554 1.8792c2.8052 0.62581 5.6105 1.9098 8.4157 3.5133l0.16338 3.595z" fill-rule="evenodd"/>
  <path d="m622.2 351.38c16.798 0.28827 35.199 1.2743 49.796 2.8082l-70.62 91.796c-10.301-4.5686-18.501-9.3369-23.494-14.025-1.3234-1.3233-2.4059-8.9404-3.128-18.904l47.446-61.676zm58.847 3.9065c4.9629 0.69457 9.1722 1.4648 12.244 2.3077l-73.525 95.575c-3.792-1.3165-7.4466-2.6645-10.912-4.0405l72.193-93.842z" color="#000000" color-rendering="auto" fill="#bcaaa4" image-rendering="auto" shape-rendering="auto" solid-color="#000000" style="isolation:auto;mix-blend-mode:normal"/>
  <rect transform="scale(-1,1)" x="-485.43" y="600.24" width="185.31" height="7.5169" ry="0" color="#000000" color-rendering="auto" fill="#333" image-rendering="auto" shape-rendering="auto" solid-color="#000000" style="isolation:auto;mix-blend-mode:normal"/>
  <path d="m263.04 600.43c-2.1274 6.2915-4.6961 12.495-1.1555 19.913l-4.9686 4.3604c-12.728-4.6104-11.527-14.374-8.7818-24.709z" fill="#333" fill-rule="evenodd"/>
  <rect transform="scale(-1,1)" x="-524.51" y="567.44" width="17.069" height="7.5169" ry="0" color="#000000" color-rendering="auto" fill="#333" image-rendering="auto" shape-rendering="auto" solid-color="#000000" style="isolation:auto;mix-blend-mode:normal"/>
  <rect x="-221.61" y="256.65" width="738.18" height="312.86" color="#000000" color-rendering="auto" fill="#fff" image-rendering="auto" shape-rendering="auto" solid-color="#000000" style="isolation:auto;mix-blend-mode:normal"/>
  <rect x="-221.61" y="258.79" width="738.18" height="28.466" color="#000000" color-rendering="auto" fill="#afb42b" image-rendering="auto" shape-rendering="auto" solid-color="#000000" style="isolation:auto;mix-blend-mode:normal"/>
  <rect x="491.44" y="256.65" width="25.132" height="312.86" color="#000000" color-rendering="auto" fill="#afb42b" image-rendering="auto" shape-rendering="auto" solid-color="#000000" style="isolation:auto;mix-blend-mode:normal"/>
  <rect x="-221.61" y="256.65" width="31.918" height="312.86" color="#000000" color-rendering="auto" fill="#afb42b" image-rendering="auto" shape-rendering="auto" solid-color="#000000" style="isolation:auto;mix-blend-mode:normal"/>
  <path d="m-221.61 256.65v28.465h738.18v-28.465h-738.18zm0 63.773v249.08h738.18v-249.08h-738.18z" color="#000000" color-rendering="auto" fill="#cddc39" image-rendering="auto" shape-rendering="auto" solid-color="#000000" style="isolation:auto;mix-blend-mode:normal"/>
  <path d="m516.57 353.38-178.33 216.12h73.74l104.59-126.76v-89.369z" color="#000000" color-rendering="auto" fill="#d4e157" image-rendering="auto" shape-rendering="auto" solid-color="#000000" style="isolation:auto;mix-blend-mode:normal"/>
  <path d="m-71.568 256.65-23.486 28.465h73.742l23.486-28.465h-73.742zm254.45 0-23.486 28.465h176.78l23.486-28.465h-176.78zm196.98 0-23.486 28.465h73.74l23.486-28.465h-73.74zm-504.05 63.773-97.426 118.07v89.373l171.17-207.45h-73.742zm254.45 0-205.52 249.08h176.78l205.52-249.08h-176.78zm196.98 0-205.52 249.08h73.74l205.52-249.08h-73.74z" color="#000000" color-rendering="auto" fill="#d4e157" image-rendering="auto" shape-rendering="auto" solid-color="#000000" style="isolation:auto;mix-blend-mode:normal"/>
  <rect x="-221.61" y="391.37" width="738.18" height="10.562" color="#000000" color-rendering="auto" fill="#afb42b" image-rendering="auto" shape-rendering="auto" solid-color="#000000" style="isolation:auto;mix-blend-mode:normal"/>
  <rect x="-221.61" y="352.99" width="738.18" height="10.562" color="#000000" color-rendering="auto" fill="#afb42b" image-rendering="auto" shape-rendering="auto" solid-color="#000000" style="isolation:auto;mix-blend-mode:normal"/>
  <rect x="-218.9" y="256.65" width="19.694" height="312.86" color="#000000" color-rendering="auto" fill="#afb42b" image-rendering="auto" shape-rendering="auto" solid-color="#000000" style="isolation:auto;mix-blend-mode:normal"/>
  <rect x="-221.61" y="258.42" width="738.18" height="8.8965" color="#000000" color-rendering="auto" fill="#afb42b" image-rendering="auto" shape-rendering="auto" solid-color="#000000" style="isolation:auto;mix-blend-mode:normal"/>
  <rect x="497.78" y="256.65" width="19.694" height="312.86" color="#000000" color-rendering="auto" fill="#afb42b" image-rendering="auto" shape-rendering="auto" solid-color="#000000" style="isolation:auto;mix-blend-mode:normal"/>
  <rect x="392.22" y="256.65" width="19.694" height="312.86" color="#000000" color-rendering="auto" fill="#afb42b" image-rendering="auto" shape-rendering="auto" solid-color="#000000" style="isolation:auto;mix-blend-mode:normal"/>
  <rect x="294.24" y="256.65" width="19.694" height="312.86" color="#000000" color-rendering="auto" fill="#afb42b" image-rendering="auto" shape-rendering="auto" solid-color="#000000" style="isolation:auto;mix-blend-mode:normal"/>
  <rect x="187.81" y="256.65" width="19.694" height="312.86" color="#000000" color-rendering="auto" fill="#afb42b" image-rendering="auto" shape-rendering="auto" solid-color="#000000" style="isolation:auto;mix-blend-mode:normal"/>
  <rect x="89.317" y="256.65" width="19.694" height="312.86" color="#000000" color-rendering="auto" fill="#afb42b" image-rendering="auto" shape-rendering="auto" solid-color="#000000" style="isolation:auto;mix-blend-mode:normal"/>
  <rect x="-221.61" y="549.16" width="738.18" height="18.829" color="#000000" color-rendering="auto" fill="#afb42b" image-rendering="auto" shape-rendering="auto" solid-color="#000000" style="isolation:auto;mix-blend-mode:normal"/>
  <rect x="-10.688" y="256.65" width="19.694" height="312.86" color="#000000" color-rendering="auto" fill="#afb42b" image-rendering="auto" shape-rendering="auto" solid-color="#000000" style="isolation:auto;mix-blend-mode:normal"/>
  <rect x="-111.83" y="256.65" width="19.694" height="312.86" color="#000000" color-rendering="auto" fill="#afb42b" image-rendering="auto" shape-rendering="auto" solid-color="#000000" style="isolation:auto;mix-blend-mode:normal"/>
  <rect x="-221.61" y="256.65" width="738.18" height="8.8965" color="#000000" color-rendering="auto" fill="#c0ca33" image-rendering="auto" shape-rendering="auto" solid-color="#000000" style="isolation:auto;mix-blend-mode:normal"/>
  <rect x="-221.61" y="350.97" width="738.18" height="10.562" color="#000000" color-rendering="auto" fill="#c0ca33" image-rendering="auto" shape-rendering="auto" solid-color="#000000" style="isolation:auto;mix-blend-mode:normal"/>
  <rect x="-221.61" y="389.35" width="738.18" height="10.562" color="#000000" color-rendering="auto" fill="#c0ca33" image-rendering="auto" shape-rendering="auto" solid-color="#000000" style="isolation:auto;mix-blend-mode:normal"/>
  <rect x="-221.61" y="256.65" width="19.694" height="312.86" color="#000000" color-rendering="auto" fill="#c0ca33" image-rendering="auto" shape-rendering="auto" solid-color="#000000" style="isolation:auto;mix-blend-mode:normal"/>
  <rect x="-110.24" y="256.65" width="19.694" height="312.86" color="#000000" color-rendering="auto" fill="#c0ca33" image-rendering="auto" shape-rendering="auto" solid-color="#000000" style="isolation:auto;mix-blend-mode:normal"/>
  <rect x="-7.0181" y="256.65" width="19.694" height="312.86" color="#000000" color-rendering="auto" fill="#c0ca33" image-rendering="auto" shape-rendering="auto" solid-color="#000000" style="isolation:auto;mix-blend-mode:normal"/>
  <rect x="93.489" y="256.65" width="19.694" height="312.86" color="#000000" color-rendering="auto" fill="#c0ca33" image-rendering="auto" shape-rendering="auto" solid-color="#000000" style="isolation:auto;mix-blend-mode:normal"/>
  <rect x="191.28" y="256.65" width="19.694" height="312.86" color="#000000" color-rendering="auto" fill="#c0ca33" image-rendering="auto" shape-rendering="auto" solid-color="#000000" style="isolation:auto;mix-blend-mode:normal"/>
  <rect x="298.58" y="256.65" width="19.694" height="312.86" color="#000000" color-rendering="auto" fill="#c0ca33" image-rendering="auto" shape-rendering="auto" solid-color="#000000" style="isolation:auto;mix-blend-mode:normal"/>
  <rect x="397.73" y="256.65" width="19.694" height="312.86" color="#000000" color-rendering="auto" fill="#c0ca33" image-rendering="auto" shape-rendering="auto" solid-color="#000000" style="isolation:auto;mix-blend-mode:normal"/>
  <rect x="503.63" y="256.65" width="19.694" height="312.86" color="#000000" color-rendering="auto" fill="#c0ca33" image-rendering="auto" shape-rendering="auto" solid-color="#000000" style="isolation:auto;mix-blend-mode:normal"/>
  <path d="m587.91 283.89-80.784 21.207 0.0651 4.2832 80.719-19.688v-5.8027z" fill="#c0ca33" fill-rule="evenodd"/>
  <path d="m-27.274 566.98-43.942 51.013h-10.607l18.688-55.558z" fill="#333" fill-rule="evenodd"/>
  <rect x="-221.61" y="551.75" width="738.18" height="17.758" color="#000000" color-rendering="auto" fill="#c0ca33" image-rendering="auto" shape-rendering="auto" solid-color="#000000" style="isolation:auto;mix-blend-mode:normal"/>
  <rect x="-339.16" y="115.14" width="1272.1" height="54.073" color="#000000" color-rendering="auto" fill="#ffa726" image-rendering="auto" shape-rendering="auto" solid-color="#000000" style="isolation:auto;mix-blend-mode:normal"/>
  <rect x="-339.16" y="781.84" width="1272.1" height="52.141" color="#000000" color-rendering="auto" fill="#ffa726" image-rendering="auto" shape-rendering="auto" solid-color="#000000" style="isolation:auto;mix-blend-mode:normal"/>
 </g>
</svg>
